<svg xmlns="http://www.w3.org/2000/svg" xmlns:xlink="http://www.w3.org/1999/xlink" viewBox="0 0 80 80" version="1.1">
<g id="surface1">
<path style=" " d="M 40 7 C 35.59375 7 32 10.59375 32 15 C 32 19.40625 35.59375 23 40 23 C 44.40625 23 48 19.40625 48 15 C 48 10.59375 44.40625 7 40 7 Z M 40 9 C 43.324219 9 46 11.675781 46 15 C 46 18.324219 43.324219 21 40 21 C 36.675781 21 34 18.324219 34 15 C 34 11.675781 36.675781 9 40 9 Z M 37 14 C 36.449219 14 36 14.449219 36 15 C 36 15.550781 36.449219 16 37 16 C 37.550781 16 38 15.550781 38 15 C 38 14.449219 37.550781 14 37 14 Z M 43 14 C 42.449219 14 42 14.449219 42 15 C 42 15.550781 42.449219 16 43 16 C 43.550781 16 44 15.550781 44 15 C 44 14.449219 43.550781 14 43 14 Z M 40 32 C 35.59375 32 32 35.59375 32 40 C 32 44.40625 35.59375 48 40 48 C 44.40625 48 48 44.40625 48 40 C 48 35.59375 44.40625 32 40 32 Z M 40 34 C 43.324219 34 46 36.675781 46 40 C 46 43.324219 43.324219 46 40 46 C 36.675781 46 34 43.324219 34 40 C 34 36.675781 36.675781 34 40 34 Z M 37 39 C 36.449219 39 36 39.449219 36 40 C 36 40.550781 36.449219 41 37 41 C 37.550781 41 38 40.550781 38 40 C 38 39.449219 37.550781 39 37 39 Z M 43 39 C 42.449219 39 42 39.449219 42 40 C 42 40.550781 42.449219 41 43 41 C 43.550781 41 44 40.550781 44 40 C 44 39.449219 43.550781 39 43 39 Z M 40 57 C 35.59375 57 32 60.59375 32 65 C 32 69.40625 35.59375 73 40 73 C 44.40625 73 48 69.40625 48 65 C 48 60.59375 44.40625 57 40 57 Z M 40 59 C 43.324219 59 46 61.675781 46 65 C 46 68.324219 43.324219 71 40 71 C 36.675781 71 34 68.324219 34 65 C 34 61.675781 36.675781 59 40 59 Z M 37 64 C 36.449219 64 36 64.449219 36 65 C 36 65.550781 36.449219 66 37 66 C 37.550781 66 38 65.550781 38 65 C 38 64.449219 37.550781 64 37 64 Z M 43 64 C 42.449219 64 42 64.449219 42 65 C 42 65.550781 42.449219 66 43 66 C 43.550781 66 44 65.550781 44 65 C 44 64.449219 43.550781 64 43 64 Z "></path>
</g>
</svg>