<svg version="1.1" id="Layer_1" xmlns="http://www.w3.org/2000/svg" xmlns:xlink="http://www.w3.org/1999/xlink" x="0px" y="0px" viewBox="0 0 16 16" style="enable-background:new 0 0 16 16;" xml:space="preserve" width="80" height="80">
<g>
	<circle style="fill:#BAE0BD;" cx="7.5" cy="7.5" r="7"/>
	<g>
		<path style="fill:#5E9C76;" d="M7.5,1C11.084,1,14,3.916,14,7.5S11.084,14,7.5,14S1,11.084,1,7.5S3.916,1,7.5,1 M7.5,0
			C3.358,0,0,3.358,0,7.5S3.358,15,7.5,15S15,11.642,15,7.5S11.642,0,7.5,0L7.5,0z"/>
	</g>
</g>
<rect x="3.5" y="7" style="fill:#5E9C76;" width="8" height="1"/>
<rect x="3.5" y="7" transform="matrix(-1.836970e-16 1 -1 -1.836970e-16 15 1.776357e-15)" style="fill:#5E9C76;" width="8" height="1"/>
</svg>